<?xml version="1.0" encoding="UTF-8" standalone="no"?>
<svg width="200" height="200" viewBox="0 0 200 200" xmlns="http://www.w3.org/2000/svg">
  <!-- Background Circle -->
  <circle cx="100" cy="100" r="90" fill="#1c1c20" />
  
  <!-- Kubernetes Wheel (Simplified) -->
  <circle cx="100" cy="100" r="70" fill="none" stroke="#22c55e" stroke-width="3" />
  
  <!-- Spokes representing namespaces -->
  <line x1="100" y1="30" x2="100" y2="50" stroke="#22c55e" stroke-width="4" stroke-linecap="round" />
  <line x1="170" y1="100" x2="150" y2="100" stroke="#22c55e" stroke-width="4" stroke-linecap="round" />
  <line x1="100" y1="170" x2="100" y2="150" stroke="#22c55e" stroke-width="4" stroke-linecap="round" />
  <line x1="30" y1="100" x2="50" y2="100" stroke="#22c55e" stroke-width="4" stroke-linecap="round" />
  
  <!-- Diagonal spokes -->
  <line x1="135" y1="65" x2="155" y2="45" stroke="#22c55e" stroke-width="4" stroke-linecap="round" />
  <line x1="135" y1="135" x2="155" y2="155" stroke="#22c55e" stroke-width="4" stroke-linecap="round" />
  <line x1="65" y1="135" x2="45" y2="155" stroke="#22c55e" stroke-width="4" stroke-linecap="round" />
  <line x1="65" y1="65" x2="45" y2="45" stroke="#22c55e" stroke-width="4" stroke-linecap="round" />
  
  <!-- Central Pod Symbol -->
  <circle cx="100" cy="100" r="20" fill="#22c55e" />
  <circle cx="100" cy="100" r="10" fill="#1c1c20" />
  
  <!-- Timer Symbol for Monitoring -->
  <path d="M60,80 Q60,60 90,60 L110,60 Q140,60 140,80 L140,120 Q140,140 110,140 L90,140 Q60,140 60,120 Z" 
        fill="none" stroke="#fbbf24" stroke-width="3" stroke-dasharray="5,3" />
  
  <!-- Text Shadow -->
  <text x="102" y="183" font-family="Arial, sans-serif" font-size="22" font-weight="bold" fill="#000" opacity="0.3">AGNOSTER</text>
  
  <!-- Text -->
  <text x="100" y="180" font-family="Arial, sans-serif" font-size="22" font-weight="bold" fill="#fff" text-anchor="middle">AGNOSTER</text>
</svg>